<?xml version="1.0" encoding="UTF-8" standalone="no"?>
<svg
   xmlns:dc="http://purl.org/dc/elements/1.1/"
   xmlns:cc="http://creativecommons.org/ns#"
   xmlns:rdf="http://www.w3.org/1999/02/22-rdf-syntax-ns#"
   xmlns:svg="http://www.w3.org/2000/svg"
   xmlns="http://www.w3.org/2000/svg"
   version="1.1"
   id="svg509"
   viewBox="0 0 584 384"
   height="384px"
   width="584px">
  <defs
     id="defs511" />
  <metadata
     id="metadata514">
    <rdf:RDF>
      <cc:Work
         rdf:about="">
        <dc:format>image/svg+xml</dc:format>
        <dc:type
           rdf:resource="http://purl.org/dc/dcmitype/StillImage" />
      </cc:Work>
    </rdf:RDF>
  </metadata>
  <g
     id="layer1" />
  <rect
     y="-5"
     x="-2"
     height="392"
     width="591"
     id="rect2885"
     style="opacity:1;fill:#30c9f7;fill-opacity:1;fill-rule:evenodd;stroke:#000013;stroke-width:5;stroke-linecap:square;stroke-linejoin:round;stroke-miterlimit:4;stroke-dasharray:none;stroke-dashoffset:0;stroke-opacity:0.31372549" />
  <path
     style="fill:#0168a5"
     id="path779"
     transform="matrix(0.85178869,0,0,1.0230475,209,117.74021)"
     d="m 114.65,31.15 32.1,24.250002 -5.7,5.75 0,-0.200001 L 73.550003,9.75 6.0500002,60.950001 l 0,0.299999 L 0,55.400002 73.349998,0 100.25,20.200001 100.25,10.2 l 14.4,0 0,20.95 m -41.099997,-12.600001 60.599987,45.750004 0,57.849997 -26.64999,0 -1.2,-3.1 1.15,3.1 -94.5,0 0,-57.849997 60.600003,-45.750004" />
  <path
     style="fill:#08488f"
     id="path783"
     transform="matrix(1.7698286,0,0,1.2132434,14.30566,101)"
     d="m 67.716664,4.7611111 q 0.400001,0.3000002 0.300003,1.0999999 0.400001,0 0.699997,0.3000002 l 0.300003,0.6999998 q 0.400001,0 0.699997,0.5 0.300003,0.4000001 0.200004,0.9000001 -0.1,0.6999998 -1.099998,1.3500004 l -1.300003,2.0999995 -1.650002,1.7 1.5,0.95 q 1.050003,0.7 1.349999,1.6 0.400001,0.7 -1.099999,2.599999 l -1.25,2.75 -1.299995,3.550001 q -0.5,1.8 -2.400002,4.850001 l -1.850002,3.799999 q -1,1.349999 -2.599999,2.049999 l -3.45,1.5 q -1.900002,1.400002 -3.200001,2 l -3.649998,1.350003 3.299999,9.799999 1.149998,4.349998 0.900002,5.05 0.7,4.100002 0.8,4.549999 q 0.799999,3.150002 0.7,3.949997 -0.100002,1.700005 -0.7,2.100006 -0.400002,0.25 -2,0 l -2.150002,-0.300003 -1,0.1 -0.699997,0.25 -2.950001,1 -2.7,0.800003 0.299999,1.299995 -0.1,4.950005 q 0,0.799995 0.399998,2.049995 l 0.400002,2.200005 -0.1,1.599998 q -0.100002,0.300003 0.1,1.550003 l 0.400001,4.399994 0.699997,4.850006 q 0.400002,1.549995 0.300003,5.599995 l 2.049999,8.65 1.399998,4.45 q 0.5,1.4 0.100002,2.45 -0.299999,1.1 0.5,4.2 l 0.3,3.45 0.1,3.25001 q 0.200001,0.79999 -0.399998,2.59999 l 0.3,0.85 1.2,1 1.950001,0.7 q 0.599999,0.60001 0.299999,1.5 l -0.100002,1.2 -0.1,1.15001 -0.3,1 q -0.2,0.59999 0.8,1.59999 0.400001,0.7 1.099998,1.1 l 2.150002,1.75 1.400001,0.6 q 0.699997,0.20001 0.699997,0.8 l 0.400002,0.5 q 0.299999,0 0.2,0.7 0,0.9 -2,1.1 l -5.45,0.35001 -2.150002,-0.35001 -1.199997,-0.7 0.1,-0.69999 -1.5,0.39999 -1.5,-0.1 -1.450001,-0.29999 q -0.200001,-0.10001 -0.200001,-1.10001 l 0,-1.1 0.200001,-0.2 0.100002,-1.84999 -0.100002,-0.70001 -0.799999,-0.6 q -1.200001,-1.19999 -2.099999,-3.15 -0.200001,-0.6 0.599999,-1.4 l 1.099998,-0.89999 q 0.300003,-0.30001 -0.299999,-1.20001 l -1,-2.75 -1.099999,-3.29999 q -0.45,-1.15001 -0.95,-3.45001 l -1.700001,-3.55 q -0.399998,-0.8 -1.299999,-4.45 l -0.5,-1.5 q -0.700001,-0.7 -0.8,-2.2 l -0.2,-1.85 -0.650002,-3.35 -1,-3.9 -1.5,-5.15 q -0.999998,-3.049996 -1.499998,-5.250001 -0.5,-2.25 -1.85,-5.549995 l -0.5,-2.550003 q -0.3,-0.299996 -0.600001,0.400001 l -0.399999,0.699997 -0.5,2.350006 q -0.8,1.199997 -0.8,3.799996 0,1.450004 -0.7,3.550003 l -0.200001,3.649996 -1.349999,8.6 q -0.400001,3 -1.2,4 -0.3,0.4 -0.200001,0.55 l 0.200001,1.4 q 0.2,1.5 -0.600001,3 -0.199999,0.3 0.100001,0.75 l 0.1,1.4 -0.200001,3.55 q 0,2.4 -0.399999,4.80001 -0.700001,4.14999 -0.700001,5.29999 l -0.599999,1.9 1.099999,1 q 0.700001,0.6 0.700001,3.05001 0,1 -1.9,3.5 l -0.4,1.14999 q -0.1,0.3 0.3,0.60001 l 0.1,1.69999 -1.950001,0.6 0.100001,0.70001 q 0.1,0.29999 -2.5,0.94999 l -3.25,0.2 -3.3000005,-0.2 q -0.5999994,-0.1 -0.5,-0.44999 l 0.1999998,-0.40001 0,-1.2 q 0.1000004,-0.39999 0.9000007,-1.3 l 1.099999,-1.2 1,-1.55 -0.399999,-1.59999 q -1.100001,-2.40001 -1.2,-3.45001 -0.100001,-1.2 0.899999,-1.7 1.2,-0.1 1.400001,-0.59999 l 0.299999,-1.20001 q 0.100001,-0.95 0.3,-1.15 0.300001,-0.6 -0.5,-3.1 l 0,-2.35 q 0,-2.6 -0.399999,-4.25 -0.2,-0.7 -0.2,-3 l 0.1,-2.85 0.5,-4.75 q 0.400001,-0.4 0.2,-1.9 l -0.2,-1.5 q 0.300001,-2.55 0.100001,-3.35 l -0.400001,-6.85 -0.5,-8.400001 0,-4.849998 q 0.3,-2.299996 -0.1,-1.900002 -0.5,0.300003 -0.900001,0 -0.399999,-0.1 -0.2,-1.849998 0.600001,-2.5 0.600001,-3.949997 0,-1.5 0.599999,-4.200005 l 0.400001,-2.949997 -0.3,-1.900001 q -0.100001,-0.75 0.199999,-1.949997 l 0.5,-1.599999 -0.199999,-8.100002 -0.5,-3 -2.2,4.049999 0,2.099999 q 0,2.5 -0.6000005,3.650001 -0.5999994,1.199997 -0.8000002,2.300003 l -1.3499994,4.649994 q -0.4000001,1.700005 -0.3000002,3.050003 l 0.1999998,2.199997 0.1000004,1.300003 -0.1000004,1.050003 q -0.1,0.699997 -0.8999996,0.399994 Q 5.9166668,80.011111 5.7166665,79.36111 l -0.1,-0.699997 q 0,-1 -0.1999998,-0.800003 l -0.9000001,0.200004 0.1,0.599999 0.1,1.449997 0.3000002,2.200004 q 0.1,1.599999 -0.4000001,1.599999 l -0.8999999,-0.700005 -0.95,-0.699997 -0.8,-0.699997 -0.7,-0.700004 Q 0.56666668,80.211108 0.56666668,77.461108 L 0.06666667,76.761111 q -0.20000001,-0.199997 0.2,-1.800003 L 0.66666665,73.11111 0.46666666,71.911113 q -0.19999999,-0.300003 -0.1,-0.700005 l 0.1,-0.799995 0.19999999,-5.349999 Q 1.1666666,62.31111 1.5666666,61.411113 l 0.6000002,-1.200001 0.5,-2.75 q 0.1,-0.400002 0.3499999,-0.600002 l 0.4000001,-0.3 0.1999998,-1 q 0,-1.2 0.9000001,-2.25 l 0.3000002,-1.099998 0,-0.900002 0.8999996,-1.799999 q 0.4000001,-0.25 0.6000004,-1.549999 0,-1.200001 0.1999998,-1.5 l 0.6999998,-1.600002 0.1000004,-2.55 q 0.1999998,-1.7 0.5999999,-2.299999 L 8.4166663,38.961112 8.5666669,37.56111 8.6666663,35.961112 Q 8.7666667,35.36111 9.8666671,34.661113 l 2.9999999,-1.050003 1.25,-0.699997 0.9,-0.600003 1.899999,-0.399999 1.600001,0 1.25,-0.8 q 0.799999,-0.800001 1.2,-1.85 l -0.6,1.75 q -0.800001,2.299999 -1.200001,4.950001 -0.649999,4.349998 -1.75,13.450001 -0.5,2.5 -0.699999,6.949997 -0.300001,1.800003 -1.1,11.200004 l 4.85,0.299996 q 1.9,0.200004 5.449999,0 l 0.100001,0 q -1.100001,-1.799996 -1.55,-13.649998 l -0.2,-15.150002 q 0,-1.799999 0.549999,-3.299999 l 0.300001,-1.200001 q -1.35,-1.349998 -0.65,-1.849998 0.349999,-0.400002 2.05,-0.299999 l 1.6,0.199997 q 0.4,0.100002 0.299999,0.900001 l -0.5,1.25 q -0.299999,0.400002 0.5,1.599999 1,1.7 1.300001,2.800003 0.75,2.349998 1.65,11.849998 l 2.1,15.349999 -0.600002,0.700004 3.75,-0.400001 q 2.400002,0 3.700001,-0.700005 l 1.25,-1.649994 q 0.700001,-1.400001 0.700001,-2.600002 l 0.299999,-4.450001 q 0.200001,-2.5 -0.299999,-4.849998 l -1.099999,-4.75 Q 39.316666,46.261111 37.816666,44.211112 L 34.266667,39.06111 q -3.600001,-4.849998 -3.5,-6.25 l 0.299999,-1.5 0.200001,-0.299999 0,-0.1 0.2,0.1 4.149998,-2.85 3.600002,-1.5 1.200001,-0.100001 1.549999,1.600001 1,1.45 q 0,0.4 0.8,0.4 0.799999,0 0.900001,0.299999 l 0.599999,0.100001 1.349998,-0.3 1.300003,-0.1 0.699997,0 0.5,-0.200001 q 0.300003,-0.299999 1.600002,-0.5 l 0.75,-0.149999 0.599999,-0.199999 0.799999,-0.700001 1.400002,-1.4 q 0.1,-0.300001 0.400001,-0.300001 l 0.299999,-0.1 0.5,-0.600001 0.700001,-0.5 q 0.199997,0 0.399998,-1 l 0,-1.050001 0.650001,-1.399999 0.399998,-2.199999 3,-7.800001 0.200001,-0.1 q -0.1,0 0.100002,-0.6 l 0.199997,-1.9499999 q 0,-0.6999998 0.800003,-3.0999999 l 0.649998,-1.9000001 q 0.299999,-0.95 0.700001,-0.8499999 l 0.5,0.6999998 0,1.0500002 1.300003,-1.6500001 2.399994,-2.8 q 0.950004,-0.79999999 1.350006,-0.69999999 0.599998,0.30000001 0.199997,0.89999998 l -2.75,3.75000011 0.599998,-0.1 0.849999,0.1999998 M 20.966667,22.111111 q -0.7,-1.399999 -0.2,-1.899999 0.299999,-0.100001 0.299999,-0.800001 0,-1.15 0.300001,-2.55 0.6,-2.85 2.5,-4.55 2.949999,-2.6999995 8.300001,0.2 l 1,0.6 q 0.899998,0.5 1.099999,0.9 l 0.2,0.65 q -0.100002,0.3 0.1,0.8 l 0.850002,2.4 0.1,1.75 -0.25,1.5 -1.3,5.05 q -0.400001,1.6 -1.5,2.800001 l -1.6,1.149999 q -0.9,0.8 -2.25,0.699999 l -2.1,0.100001 q -1,0.2 -1.200001,0.399999 l -3.949999,-2.849998 0.199999,-0.200001 0.400001,-0.1 0.3,-2.5 q 0.1,-0.600001 -0.5,-1.949999 l -0.8,-1.600001" />
  <path
     style="fill:#08488f"
     id="path789"
     transform="matrix(-1.5966854,0,0,1.1270424,571.58274,111)"
     d="m 51.599998,48.999999 q -0.199996,2.549999 2.600003,10.299999 l 3.049999,7.599999 -0.900002,0.75 q -3.5,1.650001 -5.75,2.050003 -0.699996,0.199997 -0.5,1.699997 L 50,72.100002 Q 50,72.7 49.25,73.2 l -1.400002,1.5 q -0.75,0.849998 -0.549999,7.25 L 49.25,81.500003 48.650002,79.350002 q -0.100003,-0.75 0.349998,-1.5 0.549999,-0.849999 1.450001,-1 l 0.25,-0.1 Q 50.599998,75.95 50.900002,73.649997 51.049999,73.049998 50.799999,71.750003 L 51.25,71.649997 q 2.700001,-0.1 4.400002,-1.149994 l 1.5,2.599999 Q 57.700001,73.7 57.950001,75.049998 l 1.450001,0.300004 q 0.799999,0.5 1,1.349998 l 0.449996,2.150002 3.450005,-0.800004 Q 65.849998,77.7 67.199997,78.399997 68.550003,79.350002 68.900002,80.7 l 3.199996,14.650002 Q 72.5,96.799998 71.75,98.100002 70.949997,99.250003 69.449997,99.549998 L 48.299999,104.55 l -1.25,0.1 0.25,23.25 0.25,13.8 q -0.05,0.64999 0.650002,1.7 l 0.649997,1 -1.199996,0.6 q 2.449996,1.65 4.599998,2 1.5,0.4 2.299999,1.25 0.75,0.84999 0.450001,1.4 l -5.099998,0.3 q -2.600003,-0.14999 -6.200001,-1.35001 L 41.5,148.4 q -0.450001,0.15001 -0.900002,0.44999 -1.25,0.35001 -3.799999,0 Q 33.700001,148.65 33.400002,147.4 33.25,145.7 34.049999,144.30001 l -0.25,-0.20002 Q 33.400002,143.80001 33.400002,143.2 l 0.1,-4.2 q 0.200001,-3.44999 0.549999,-5 0.25,-0.85 0.600003,-14.8 L 35.1,104.2 q 0.200001,-2 -0.799999,-4.900002 Q 32.349998,102.75 32.099998,104.1 L 28.4,112.35 l -7.05,13 -5.85,10.49999 -1,1.60001 q -0.95,1.60001 -1.4,1.55 -0.45,0.05 -0.65,0.55001 L 12.3,140.5 q -0.45,1.34999 1.6,3.25 l 2.399999,2.4 -7.4999988,-0.25 Q 6.9000001,145.59999 6,144.4 q -0.5999999,-0.95 -0.5500002,-1.9 0,-1.40001 -1.0499997,-2 Q 1,138.59999 0.20000001,137.4 -0.60000001,136.25 1.8,134.5 1.15,133.84999 2.7000001,132.09999 L 6.3000002,128.4 q 1.5,-1.55 4.4499998,-9.95 3.3,-9 3.7,-9.75 2.500001,-4.15 3.000001,-5.65 Q 17.75,102.4 19,101 19.9,99.95 19.549999,99.000003 19.25,98.149997 19.9,97.399997 l 1,-1.349999 2.6,-22.049995 q 0,-0.5 -1.799999,-0.900001 Q 19.35,72.899997 18.9,72.2 17.85,71.149997 18.65,64.95 18.549999,64.649997 19.200001,61.350002 L 19.6,57.249999 q -0.05,-0.849998 0.75,-2.349998 l 1,-2.600003 q 0.25,-1.199996 0.5,-7 Q 22.049999,39.7 21.85,39.2 l -4.75,-0.549999 -7.6,-0.25 Q 2.7000001,38.2 1.9,36.249999 q -0.35,-0.75 1.4,-3.25 l 2.8999998,-3.5 4.4500002,-5 Q 14.35,20.6 15.4,20.1 l 2.050001,-1.850001 Q 18.75,16.85 19.450001,16.8 L 20,16.95 q 1.5,0.950001 4.299999,5.299999 L 24.9,23.35 q -0.100001,0.399999 -1.15,0.5 -0.700001,0.25 -1.6,1.550001 L 24.65,24.95 29.1,23.45 q 0.850001,-0.35 1.100001,-2.450001 0.1,-0.299999 1,-0.699999 L 30.75,19.400001 27.950001,19.85 l -3.75,0.550001 L 23.85,20.1 22.75,18.3 Q 22.049999,16.95 21.4,16.499999 22.6,14.8 22.6,13.4 q 0,-1.3 2.15,-3.15 L 24.549999,8.2500002 Q 24.35,7.6000001 24.799999,6.2 l 0.650002,-2.0500002 q 0,-1.0999999 1.599998,-1.9499998 0.75,-1.05 2.150002,-1.35000002 L 31.9,0.2 q 1.500002,-0.5 2.699998,0.25 l 2.600003,0.10000002 Q 37.799999,0.59999998 38.25,1.2 l 1.150002,1.3499999 Q 40.700001,3.65 41.200001,6.6499998 l 0.200001,1.6000004 0.149997,1.8999998 -0.05,1.8 -1.25,1.6 q 0.250001,1.75 -0.2,3.05 L 39.25,17.95 q -0.1,0.4 0.1,1.35 0.800004,0.3 1.700001,1.949999 0.600001,1.850001 0.9,2.200001 0.349998,0.450001 3.099998,1.75 l 3.799999,2.15 Q 50,28.05 51,36.95 q 0.799999,8.400002 0.599998,12.049999 M 31.450001,21.35 Q 31.25,22.2 32.5,26.1 q 1.450001,6.699998 2.599998,9.6 L 35.5,28.650001 Q 35.049999,28.3 34.049999,25.749999 L 36,23.7 l 2.900002,2.049999 q -0.75,2.200001 -1.25,2.700001 L 39.25,35.150001 q 0.900002,-6.300001 0.700001,-11 l -0.25,-2.700001 -0.350003,-1.700001 0,0.450001 q -0.449996,1.4 -1.899997,2.5 L 36,23.7 q -0.700001,0.15 -4.450001,-2.25 l -0.1,-0.1 m 25.099998,56.949998 q -0.399997,0.150002 -1,0.550004 L 55,78.899997 54.400002,78.850002 52.599998,79.45 q -0.449996,0.150002 -1.25,-1.050003 l -0.549999,0.100006 q -0.450001,0.1 -0.349998,0.399994 L 51,81.149997 59.200001,79.2 l -0.5,-2.150002 L 58.5,76.850002 l -0.25,-0.1 -0.200001,0.1 -0.599998,0.799995 -0.900002,0.650001" />
  <path
     style="fill:#08488f"
     id="path791"
     transform="matrix(-1.2866691,0,0,0.72024007,433.42355,32)"
     d="m 49.701668,44.5 q 0.449997,2.799999 1.799999,6.950001 l 1.05,3.75 -0.400002,2.649997 -0.05,1.100003 -0.450001,1.799999 0,0.200001 q -0.5,2 -4,10.700001 l 0,0.04999 -0.05,0.25 -0.899998,1.5 -1.25,1.050003 q -0.600002,0.05 -0.550003,0.300003 l 0.400002,1.299995 1.049999,5 q 0.799999,3.75 0.600002,3.849999 l -4.350002,0.25 L 41.251667,115.9 q -0.400001,4.3 -1.75,12.24999 l -0.400001,3.60001 -1.049999,6.89999 -0.650002,2.95002 q -0.399998,1.25 -0.149998,1.69999 l 1.349999,2.7 q 0.799999,2.3 -0.950001,3.7 l -2.149998,0.25 q -2.75,-0.25 -5.45,-2.7 -1.05,-0.10001 -0.75,-1.64999 -0.450001,-0.30001 -0.25,-0.95002 l 0.35,-1.34999 -0.25,-1.55 -0.550001,-1.3 q -0.299999,-1.2 -0.349999,-4.25 -0.150001,-2.84999 0.25,-4.45 l 0.15,-1 q 0.549999,-1.95 1,-5.15 0.449999,-3.25 0.4,-4.9 0.2,-9.4 0,-12.8 l -0.350001,-7.7 q -0.199999,-5.399997 -0.649999,-6.350002 l -1.450001,-4.150001 -1,-3.549995 -0.449999,-2.75 -0.200001,1.449996 -0.399999,2.200005 q -0.950001,2.149994 -3.4,11.349999 Q 21.451666,100.8 20.351666,109.45 l -2.15,9.6 -2.349999,8.85 -1.400001,5.20001 -0.649999,1.5 q -0.300001,0.54998 0,1.14999 l 0.649999,1.7 q 0.200001,1.05 -0.25,1.94999 l -1.299999,2.20002 q -0.75,1.25 -0.700001,1.79998 l 0.200001,2.05001 q 0.05,1.44999 -0.450001,1.8 L 10.151667,148 Q 8.8516669,148.39999 8.6016669,148.64999 8.151667,149.05 6.6516666,149.35001 L 4.2516665,149.7 q -1.1999998,0.05 -2.0499997,-0.75 -0.9500001,-0.80001 -0.4500001,-1.45 l 0.8999999,-1 q 0.9000001,-1.05 1.5500002,-1.39999 0.5,-0.25 0.6500001,-0.90001 l 0,-1.2 q -0.05,-1.8 -1.0000003,-4.5 -1,-2.95 -0.6499998,-4.25 l 0.3499999,-2.5 1.5999999,-15.7 L 6.7016668,100.3 7.7516665,84.800003 7.5516667,84.599998 q -0.5,0.200005 -1,0 -1.3499999,-0.25 -2.4499998,-1.799995 L 2.0016667,80.699997 q -0.6500001,-0.5 0.05,-1.149994 L 6.7016668,73.75 5.9016666,72.099998 l -1.25,0.349999 -0.1999998,0.100006 q -1.4500001,0.04999 -1.4000001,-0.850006 l 0.05,-1.299995 q 0.05,-2.300004 -0.2,-3.200005 -0.95,-4.049995 -1.4999999,-4.799995 l -0.75000001,-1.450001 -0.05,-0.25 Q 0.05166667,59.400002 0.20166667,58.5 L 0.50166665,57.099998 0.85166668,56.75 0.20166667,55.799999 Q -0.34833334,55.150002 0.60166668,54.400002 L 0.75166665,53 q 0.50000005,-0.799999 0.55000005,-1.799999 -0.05,-3.100003 1.0999999,-7.600003 l 1.45,-5.549999 q 0.8500002,-3.5 1.0000003,-4.950001 L 4.9016666,30 Q 5.0516667,28.5 6.0516667,27.85 7.6516666,26.799999 15.751666,24.200001 L 18.301667,23.35 q 1.25,-0.399999 1.799999,-0.899999 L 20.401667,22.15 l -0.15,1.300001 -0.25,7.049999 q -0.300001,1.849998 0.15,7.650002 l -0.450001,10.949996 q -0.149999,4.300004 -4.099999,11.850003 l -0.3,0.549999 q 5.899999,1.299999 14.25,1.049999 l 7.099998,-0.399997 -0.549999,-1.200001 q -2.200001,-4.350003 -3.049999,-6.900002 l -0.450001,-1.700001 q -0.65,-1.949996 -0.75,-5.949996 l -0.1,-3.5 q -0.2,-2.700001 0.25,-6.950001 l 0.5,-4.900002 -0.350002,-5.25 0.100002,-0.149999 -0.25,-4.05 3.25,2.25 q 2.399998,1.55 3.700001,1.8 1.149998,0.6 5.399998,1.300001 3.5,0.899999 3.650001,2.549999 l 0.55,5.650002 L 49.701668,44.5 m -16.900001,-33.55 1,-0.15 q 0.849998,-0.15 0.75,0.65 L 33.701668,14 q -0.700001,1.45 -1.050003,1.35 -0.799999,-0.15 -0.949999,1.9 l -0.35,1.950001 q -0.15,1.25 0.35,1.899999 l -2.149999,2.05 q -2,1.7 -3.25,2 l -0.4,0 0.15,0.1 q 0.299999,0 0.649999,0.35 l 0.65,0.65 0,0.15 -0.549999,2.35 1.149999,5.549999 q 1.15,6.150002 1.550001,10.650002 0.9,9.700001 0.65,10.450001 l -1.75,2.25 q -1.6,1.649997 -1.800001,1.5 l -2.099999,-1.75 q -1.95,-1.600003 -1.900001,-2.200001 L 22.801667,38 q -0.15,-1.25 0.649999,-5.049999 Q 24.101666,29.1 24.401667,28.9 l -0.4,-1.100001 q -0.45,-1.25 -0.150001,-1.5 l 0.25,-0.25 L 24.751667,25.5 q 0.25,-0.25 0.65,-0.25 l 0.15,-0.1 -0.3,-0.05 -0.1,0 -0.75,-0.25 q -0.950001,-0.399999 -1.85,-1.300001 Q 21.201666,22.4 20.901667,21.5 l 0,-1.5 -0.5,-4.2 q -0.05,-0.1 -0.550001,-0.25 -0.699999,-0.25 -1,-1.15 -0.949999,-2.95 -0.449999,-3.45 0.5,-0.65 0.799999,0.1 -0.699999,-2.4000004 -0.35,-4.1499999 0.400001,-2.25 1.650001,-3.9500001 1.849999,-2.7 5,-2.95 l 2.75,0.44999999 q 3.05,0.80000001 4.55,3.14999991 0.849998,1.5500002 0.75,3.3499999 l -0.400002,2.1500006 -0.25,0.7999992 -0.1,1.0500004 m -3.9,52.700002 q -0.05,-1 -0.950001,-1 l -4.649999,0 q -1.05,0 -1,1 l 0,1.199996 q -0.05,1 1,1 l 4.649999,0 q 0.9,0 0.950001,-1 l 0,-1.199996 M 9.3016667,55.299999 9.151667,57.200001 l 0.1499997,2.450001 0.25,1.299999 q 0.1499996,1.200001 0.25,0.549999 l 0.1000003,-0.549999 0.15,-2.150002 -0.2500003,-4.5 -0.1499997,-0.450001 q -0.2000007,-0.449996 -0.1500005,0 L 9.3016667,55.299999 M 43.201668,57.25 l 0,-1.200001 -0.25,-1.25 L 42.051667,53.25 41.901665,62.099998 q -0.149998,0.950001 0.150002,1.200001 0.2,0.150002 0.549999,-1.049999 l 0.350002,-1.299999 0.25,-3.700001" />
  <g
     id="g843-85-0-8"
     transform="matrix(0.15742577,0,0,0.26085037,232.60091,157.76615)">
    <path
       d="M 67.099998,3.3 56.700001,33.5 82.800003,13 60.799999,37.150002 93.449997,27.6 63,42.099998 l 34,2.600003 -34,2.599998 30.449997,14.5 L 60.799999,52.200001 100.6,93.349998 79.099998,98 93.050003,131.5 81.449997,136.14999 67.5,102.35 l -19.549999,12.6 0,-31.850002 -2.299999,-25 L 29.9,85.949997 40.299999,55.900002 14.2,76.400002 36.200001,52.200001 3.6500001,61.799999 34,47.299999 0,44.700001 34,42.099998 3.6500001,27.6 36.200001,37.150002 14.2,13 40.299999,33.5 29.9,3.3 45.650002,31.299999 48.650002,0 51.349998,31.299999 67.099998,3.3"
       transform="matrix(1.0497025,0,0,0.96217413,263.24274,30)"
       id="path777-76-7-1"
       style="fill:#54de00;fill-opacity:1" />
    <text
       xml:space="preserve"
       style="font-style:normal;font-variant:normal;font-weight:bold;font-stretch:normal;font-size:290.85443115px;font-family:sans-serif;-inkscape-font-specification:'sans-serif Bold';text-align:center;writing-mode:lr-tb;text-anchor:middle;fill:#0e23a4;fill-opacity:1;stroke:none;stroke-width:1px;stroke-linecap:butt;stroke-linejoin:miter;stroke-opacity:1"
       x="165.20784"
       y="287.45807"
       id="text789-18-6-9"
       transform="scale(1.0856747,0.92108623)"><tspan
         id="tspan791-9-3-5"
         x="165.20784"
         y="287.45807">G</tspan></text>
    <text
       xml:space="preserve"
       style="font-style:normal;font-variant:normal;font-weight:bold;font-stretch:normal;font-size:243.50003052px;font-family:sans-serif;-inkscape-font-specification:'sans-serif Bold';text-align:center;writing-mode:lr-tb;text-anchor:middle;fill:#9b8ff5;fill-opacity:1;stroke:none;stroke-width:1px;stroke-linecap:butt;stroke-linejoin:miter;stroke-opacity:1"
       x="150.62569"
       y="443.62378"
       id="text793-27-6-3"
       transform="matrix(0.78193256,-0.62295398,0.62327173,0.7823314,0,0)"><tspan
         id="tspan795-9-1-2"
         x="150.62569"
         y="443.62378">B</tspan></text>
  </g>
  <path
     style="fill:#08488f"
     id="path2882"
     transform="matrix(0.8275615,0,0,0.78692895,213.34794,259)"
     d="m 86.562503,3.45 q 1.849999,4.9000004 1.849999,11.45 -0.599999,9.2 -1.200005,9.85 L 83.5125,29.950001 q -1.849998,5 2.5,5.549999 0.550003,7.799999 3.050003,9.650002 0.599999,3.049999 1.799995,4.849998 0.599999,2.450001 0.599999,10.25 l 0.600006,4.849998 0.449997,9.599999 q 0.650002,0.600006 0,1.800003 -0.449997,1.849998 1.199997,3.699997 2.5,2.300003 3.050003,4.700005 0,1.199996 4.9,4.849998 l 3.65,4.699997 q 1.65,2.5 3.5,3.700005 2.45,1.25 4.3,3.649998 1.2,1.85 5.9,3.05 2.45,1.3 9.2,7.15 5.85,4.35 7.69999,9 1.30001,2.45 1.85001,9.14999 0.64999,4.10001 -2.39999,4.75 -1.30001,7.95002 -14.50001,7.30001 l -13.25,1.85 q -21.6,1.84999 -33.650003,0.65 -1.849999,0 -5.549995,1.19999 -4.099999,1.25 -1.800004,1.60001 l -4.699996,0.64999 -7.950001,1.20002 q -7.150002,1.19999 -6.549999,0 l 1.799999,-2.20002 Q 50.5125,146.55 51.062499,145.3 q 0,-1.25 1.650002,-1.8 2.450001,-1.3 4.899997,-8 l 0,-2.2 q 2.450001,0 2.450001,-1.85 -1.849998,-1.84999 0.650002,-2.5 3.049999,-1.85 7.100002,1.19999 l 6.149994,4.75 17.5,-2.25 q 5.950005,-1.19999 4.75,-2.5 -4.75,-3.04999 -7.799995,-6.69999 -1.849999,-2.85 -13.25,-10.2 -7.950005,-5.9 -10.200005,-14.5 l -2.399998,-3.650002 q -0.649997,-2.849998 0,-5.900001 L 58.212501,84.25 Q 53.362498,78.349998 54.562499,75.300003 57.0125,72.25 57.0125,71.650002 57.612498,70.449997 54.562499,64.5 L 48.0125,43.299999 q 1.200001,-4.099998 0,-4.099998 -3.049999,1.200001 -7.349998,1.849998 l -2.200001,0.400002 q -0.650002,0 -1.850003,-2.25 -2.449996,-3.049999 -4.299999,-3.049999 L 26.8625,36.700001 14.8125,33.650002 Q 7.6625001,34.299999 1.5125,29.950001 -0.6875,28.15 0.3125,26.5 0.91249997,25.950001 2.1124999,25.299999 L 3.3624999,24.1 Q 3.9625,24.1 3.9625,21.6 q 0.6499999,-0.550001 3.05,0 L 6.4624998,19.200001 14.8125,22.25 l 3.05,5.549999 17.499998,-2.5 L 48.662502,22.25 Q 58.862498,20.4 61.2625,21.049999 L 62.562499,20.4 l -0.649997,-0.65 0.649997,-0.549999 -0.649997,0 q -0.650002,-0.650002 1.849998,-1.25 1.199997,0 1.199997,-0.600001 l 0,-0.649999 Q 67.212497,16.15 66.612498,15.5 l -0.650001,-0.6 q 1.25,0 0.650001,-0.35 -0.650001,0 -1,-1.85 -1.299995,-1.85 -0.650001,-2.5 -2.399998,-1.8499996 -1.199997,-4.8999998 0,-0.6000004 0.550003,-0.6000004 l 0,-0.5999999 L 63.112498,3.45 66.612498,1.2 70.2625,0 q 0.650002,0 1.199997,0.64999998 l 1.300003,0 Q 73.312503,0 74.5125,0 l 6.599998,0 q 4.25,1.2 3.050004,1.65 l 2.400001,1.8" />
  <g
     id="layer2" />
</svg>
